<svg xmlns="http://www.w3.org/2000/svg" xmlns:xlink="http://www.w3.org/1999/xlink">
    <symbol viewBox="0 0 71 14" id="webshop">
        <path d="M0.86853 1.50912H2.18418L5.00762 9.72907L8.36048 0.950439L11.537 9.72907L14.6654 1.50912H15.981L11.4889 13.0496L8.3447 4.27093L4.97567 13.0496L0.86853 1.50912ZM23.0398 1.50912V2.66H18.6763V5.915H22.9116V7.06589H18.6763V11.3234H23.0398V12.4743H17.4892V1.50912H23.0398ZM25.2218 1.50912H27.147C28.2166 1.50912 29.0348 1.73953 29.6015 2.19957C30.2434 2.7038 30.5641 3.46014 30.5641 4.4682C30.5641 5.41077 30.211 6.12884 29.5053 6.62203C30.1899 6.7972 30.7004 7.15072 31.0373 7.68217C31.3742 8.21362 31.5429 8.78098 31.5429 9.38384C31.5429 9.87702 31.4385 10.3315 31.2298 10.7482C31.0212 11.1648 30.762 11.499 30.4517 11.7511C29.853 12.2332 28.9974 12.4743 27.8851 12.4743H25.2218V1.50912ZM26.4089 2.66V6.32612H27.3075C27.4677 6.32612 27.6229 6.31783 27.7726 6.30126C27.9224 6.28508 28.1015 6.2409 28.3101 6.16988C28.5188 6.09846 28.7006 6.00259 28.8553 5.88225C29.0105 5.76152 29.1418 5.58082 29.2485 5.33975C29.3555 5.09869 29.409 4.81895 29.409 4.50135C29.409 4.16164 29.3447 3.8685 29.2165 3.6219C29.0883 3.37492 28.9439 3.19146 28.7833 3.07112C28.6228 2.95039 28.4303 2.85728 28.2058 2.79139C27.9813 2.72589 27.81 2.68723 27.6926 2.67657C27.5747 2.66553 27.4573 2.66 27.3395 2.66H26.4089ZM26.4089 7.41112V11.3234H27.7726C28.639 11.3234 29.2646 11.1703 29.6497 10.8634C30.1202 10.5126 30.3554 10.0084 30.3554 9.3507C30.3554 8.61645 30.0509 8.07948 29.441 7.73977C29.056 7.5204 28.4518 7.41112 27.6283 7.41112H26.4089ZM39.4518 3.03798L38.5054 3.67911C38.3344 3.33941 38.1258 3.0656 37.8797 2.85728C37.559 2.60516 37.1578 2.4793 36.6765 2.4793C36.1417 2.4793 35.7085 2.63515 35.377 2.94763C35.0455 3.26011 34.8796 3.66846 34.8796 4.17229C34.8796 4.54514 35.0135 4.86275 35.2808 5.12591C35.4948 5.34528 35.8691 5.5753 36.4039 5.81636L37.4304 6.2768C38.1901 6.6165 38.7407 6.96173 39.083 7.31248C39.5962 7.83841 39.853 8.50164 39.853 9.30138C39.853 10.2988 39.5323 11.11 38.8904 11.7345C38.2486 12.3591 37.4412 12.6716 36.4678 12.6716C35.5052 12.6716 34.7298 12.3757 34.1418 11.7839C33.6605 11.3017 33.329 10.6551 33.1469 9.84388L34.302 9.51523C34.3771 10.0632 34.5908 10.5292 34.9439 10.9127C35.3397 11.3183 35.8529 11.5207 36.484 11.5207C37.1686 11.5207 37.698 11.31 38.0722 10.8878C38.4465 10.4661 38.6336 9.95356 38.6336 9.3507C38.6336 8.82477 38.4573 8.39748 38.1042 8.06843C37.9013 7.87116 37.4731 7.61944 36.8209 7.31248L35.8583 6.85205C35.2061 6.54509 34.7298 6.24366 34.4306 5.94775C33.9385 5.46561 33.6925 4.86827 33.6925 4.15612C33.6925 3.31219 33.9732 2.63002 34.5346 2.10922C35.0963 1.58881 35.8156 1.32841 36.6927 1.32841C37.3557 1.32841 37.9279 1.49294 38.4091 1.8216C38.8477 2.1175 39.1954 2.5231 39.4518 3.03798ZM43.222 1.50912V5.96432H48.7088V1.50912H49.8958V12.4743H48.7088V7.11521H43.222V12.4743H42.035V1.50912H43.222ZM61.5992 11.0441C60.5246 12.1291 59.2063 12.6716 57.6446 12.6716C56.0833 12.6716 54.7649 12.1291 53.6903 11.0441C52.6153 9.95909 52.0778 8.61093 52.0778 7C52.0778 5.37803 52.618 4.0271 53.698 2.94763C54.7784 1.86815 56.094 1.32841 57.6446 1.32841C59.1955 1.32841 60.5111 1.86815 61.5911 2.94763C62.6715 4.0271 63.2118 5.37803 63.2118 7C63.2118 8.61093 62.6742 9.95909 61.5992 11.0441ZM60.7248 3.79432C59.8801 2.91764 58.8532 2.4793 57.6446 2.4793C56.436 2.4793 55.4095 2.91764 54.5643 3.79432C53.7196 4.671 53.2972 5.73982 53.2972 7C53.2972 8.26018 53.7196 9.329 54.5643 10.2057C55.4095 11.0824 56.436 11.5207 57.6446 11.5207C58.8532 11.5207 59.8801 11.0824 60.7248 10.2057C61.57 9.329 61.9924 8.26018 61.9924 7C61.9924 5.73982 61.57 4.671 60.7248 3.79432ZM65.3933 1.50912H67.3347C68.5541 1.50912 69.4523 1.76675 70.0299 2.28203C70.6825 2.85175 71.0087 3.63532 71.0087 4.63273C71.0087 5.48771 70.728 6.21367 70.1662 6.81101C69.6048 7.40835 68.7574 7.70702 67.6234 7.70702H66.5808V12.4743H65.3933V1.50912ZM66.5808 2.66V6.55614H67.5591C68.2653 6.55614 68.8186 6.38096 69.2198 6.03021C69.621 5.67946 69.8212 5.1918 69.8212 4.56684C69.8212 3.29562 69.0354 2.66 67.4629 2.66H66.5808Z"/>
    </symbol>
    <symbol viewBox="0 0 189 47" id="logo">
        <path d="M72.7431 11.0311C65.0671 11.0311 59.9082 16.1853 59.9082 23.8536C59.9082 31.3177 64.6262 35.9336 72.2241 35.9336C75.1743 35.9336 77.2972 35.3718 78.2533 34.8925L78.3547 34.8375L77.5079 30.3355L77.3401 30.4023C75.9542 30.9116 74.4916 31.1774 73.0163 31.188C68.4505 31.188 65.7227 28.332 65.7227 23.5511C65.7227 18.7702 68.5051 15.7924 72.9734 15.7924C74.4679 15.7829 75.9486 16.081 77.3245 16.6685L77.4845 16.7352L78.5967 12.2804L78.6279 12.1665L78.5225 12.1115C77.586 11.6125 75.506 11.0311 72.7314 11.0311"/>
        <path d="M90.9709 11.0311C84.2236 11.0311 79.5135 16.2324 79.5135 23.6768C79.5135 31.0309 83.9661 35.9689 90.5884 35.9689C97.6127 35.9689 102.147 30.9759 102.147 23.2525C102.147 17.1713 98.6898 11.0311 90.9709 11.0311ZM90.8655 31.3844C87.5212 31.3844 85.3631 28.3163 85.3631 23.5707C85.3631 18.8252 87.5602 15.6156 90.8265 15.6156C94.5845 15.6156 96.2898 19.6659 96.2898 23.4293C96.2898 28.2613 94.1552 31.3844 90.8577 31.3844"/>
        <path d="M119.732 13.1879C118.14 11.8797 115.787 11.2433 112.536 11.2433C110.152 11.21 107.77 11.3769 105.414 11.7422L105.289 11.7618V35.58H110.792V27.071C111.337 27.1319 111.886 27.1608 112.435 27.1574C115.713 27.1574 118.358 26.2735 120.087 24.6C121.496 23.229 122.269 21.1783 122.269 18.8291C122.292 17.7577 122.076 16.6947 121.637 15.7184C121.198 14.7421 120.547 13.8774 119.732 13.1879ZM116.762 18.9705C116.762 21.3276 115.131 22.7104 112.399 22.7104C111.861 22.7256 111.323 22.6888 110.792 22.6004V15.7964C111.456 15.6592 112.135 15.5986 112.813 15.6156C115.322 15.6156 116.762 16.8374 116.762 18.9705Z"/>
        <path d="M156.405 20.8798C155.016 23.445 153.553 26.4385 152.44 28.9763C152.608 26.1871 152.686 22.8008 152.686 18.6523V11.42H147.562V35.58H153.806L158.571 26.9021C159.951 24.3589 161.18 21.7353 162.251 19.0452C161.982 22.1604 161.943 25.366 161.943 28.3792V35.58H167.059V11.42H161.439L156.405 20.8798Z"/>
        <path d="M183.344 15.7924C184.841 15.7824 186.324 16.0792 187.703 16.6645L187.863 16.7352L188.976 12.2804L189.007 12.1665L188.901 12.1115C187.965 11.6125 185.889 11.0311 183.11 11.0311C175.434 11.0311 170.275 16.1853 170.275 23.8536C170.275 31.3177 174.993 35.9336 182.591 35.9336C185.545 35.9336 187.688 35.3718 188.624 34.8925L188.726 34.8375L187.875 30.3355L187.707 30.4023C186.323 30.9112 184.861 31.1769 183.387 31.188C178.818 31.188 176.094 28.332 176.094 23.5511C176.094 18.7702 178.872 15.8081 183.352 15.8081"/>
        <path d="M144.419 35.5486L144.52 31.1802L142.21 31.0348V11.42H126.71V17.9452C126.757 20.6044 126.448 23.2579 125.789 25.8335C125.271 27.6446 124.548 29.3897 123.635 31.0348L121.641 31.1802L121.73 35.5486H144.419ZM130.831 27.0474C131.537 24.4748 131.886 21.8163 131.869 19.1473V16.1067H136.637V30.8895H129.321C129.947 29.6614 130.453 28.3746 130.831 27.0474Z"/>
        <path d="M41.9674 22.1959C41.7255 17.9846 39.665 13.5061 36.7734 10.1119C36.8436 13.3608 35.7275 15.6353 34.3656 17.6467C31.9266 21.2452 31.193 24.7494 32.5003 29.9467C33.0038 32.0128 32.9278 34.1791 32.2809 36.2043C31.6339 38.2296 30.4414 40.0344 28.8359 41.4178C37.4212 39.2139 42.4943 31.4199 41.9674 22.1959ZM32.3559 39.1275C35.2475 34.7708 34.3071 31.2038 34.1393 29.9271C32.8086 20.0352 38.2446 21.2766 39.0016 16.4446C39.4533 17.1422 39.8029 17.9017 40.0397 18.6995C40.6601 22.8362 40.0904 26.5564 36.7734 28.611L37.0114 29.0707C37.0114 29.0707 37.2104 28.9724 37.5148 28.7799C38.3265 28.2575 39.8328 27.2086 40.8436 23.6494C40.9294 28.3635 39.1811 34.4016 32.3559 39.1196"/>
        <path d="M23.344 47C18.727 47 14.2137 45.6218 10.3748 43.0395C6.53589 40.4573 3.54382 36.7871 1.77697 32.4931C0.0101146 28.199 -0.452175 23.4739 0.448559 18.9154C1.34929 14.3568 3.5726 10.1695 6.83732 6.883C10.102 3.59647 14.2615 1.35831 18.7898 0.451556C23.3181 -0.455196 28.0118 0.0101821 32.2774 1.78884C36.543 3.5675 40.1888 6.57956 42.7539 10.4441C45.319 14.3087 46.6881 18.8521 46.6881 23.5C46.6808 29.7304 44.2191 35.7035 39.8428 40.109C35.4665 44.5145 29.533 46.9927 23.344 47ZM23.344 1.96424C19.1106 1.96424 14.9723 3.22798 11.4523 5.59565C7.93235 7.96333 5.18888 11.3286 3.56882 15.2659C1.94876 19.2032 1.52488 23.5357 2.35077 27.7155C3.17667 31.8953 5.21526 35.7347 8.20874 38.7482C11.2022 41.7617 15.0161 43.8139 19.1682 44.6453C23.3203 45.4767 27.624 45.05 31.5352 43.4191C35.4464 41.7883 38.7893 39.0265 41.1413 35.483C43.4932 31.9395 44.7486 27.7735 44.7486 23.5118C44.7424 17.7989 42.4853 12.3219 38.4725 8.28226C34.4597 4.24266 29.019 1.97048 23.344 1.96424Z"/>
        <path d="M31.415 31.0349C30.2365 26.2029 21.3117 19.7995 22.58 15.3603C23.2161 13.1368 25.4209 14.1818 26.0453 14.3939C26.6697 14.6061 28.9721 15.8239 29.737 16.1421C30.2111 16.3341 30.7108 16.4545 31.2199 16.4996C31.4774 16.1775 31.1613 15.8082 30.5135 15.2857C29.6082 14.5511 29.2375 14.0522 29.0658 13.6633C28.9536 13.7674 28.8215 13.8472 28.6776 13.8979C28.5336 13.9486 28.3808 13.9691 28.2287 13.9581C28.0766 13.947 27.9283 13.9047 27.7931 13.8337C27.6578 13.7628 27.5385 13.6646 27.4424 13.5454C27.113 13.1274 26.8217 12.6804 26.5721 12.2097C26.2834 11.699 28.0667 12.8972 28.375 13.0465C28.5851 13.1535 28.7872 13.2756 28.9799 13.4118C28.7497 12.5594 29.2843 12.1547 25.819 10.3241C23.9849 9.35374 15.7391 11.3298 21.1829 20.3023C22.3537 22.2037 26.3809 26.9178 26.7751 29.6678C27.0209 31.3688 26.4473 32.233 26.4473 32.233C26.4473 32.233 25.8229 30.1706 22.2639 26.2029C18.2718 21.748 9.99092 17.7488 12.8982 7.49951C9.46536 9.822 6.8857 13.2157 5.55613 17.1584C4.22656 21.1011 4.22075 25.3743 5.53959 29.3207C6.85843 33.267 9.42885 36.6678 12.8554 38.9998C16.2819 41.3317 20.3746 42.4656 24.5039 42.227C25.1126 42.1917 25.7136 42.1288 26.3029 42.0345C30.5487 39.2021 32.2384 34.5115 31.376 31.0349M24.5858 40.1724C15.7625 40.3139 11.1616 36.8961 8.88265 32.5945C11.7626 35.6822 13.7762 35.8512 14.8104 35.9022C15.0079 35.9131 15.2059 35.9131 15.4035 35.9022V35.3758C10.7675 35.2305 8.37924 31.1213 7.01731 26.195C6.93536 25.4918 6.89244 24.7965 6.87292 24.1208C10.5997 29.6206 13.5577 30.0842 14.8806 30.2295C15.2708 30.2727 15.5284 30.2727 15.5362 30.2727V29.6874C10.4826 29.2278 8.33632 24.7768 7.13829 19.3477C7.1578 19.2259 7.17341 19.1002 7.19292 18.9863C7.374 17.7166 7.74228 16.4813 8.28558 15.3211C9.90507 24.9143 22.9429 24.8711 26.1468 34.378C30.1818 30.6695 27.1575 27.5189 23.0912 21.3277C25.5029 24.5686 35.891 32.3548 24.5585 40.1842"/>
    </symbol>
    <symbol viewBox="0 0 24 24" id="telegram">
        <path d="M24 2.74393L20.3619 22.1257C20.3619 22.1257 19.8528 23.4696 18.4545 22.8251L10.0603 16.0238L10.0214 16.0037C11.1552 14.9278 19.9476 6.57388 20.3319 6.19521C20.9268 5.60874 20.5575 5.25961 19.8668 5.70262L6.87927 14.4184L1.86872 12.6368C1.86872 12.6368 1.08021 12.3404 1.00435 11.696C0.927494 11.0504 1.89467 10.7013 1.89467 10.7013L22.3212 2.23341C22.3212 2.23341 24 1.45391 24 2.74393Z"/>
    </symbol>
    <symbol viewBox="0 0 24 24" id="youtube">
        <path fill-rule="evenodd" clip-rule="evenodd" d="M3.26249 19.5273C2.87023 19.4035 2.51232 19.1833 2.21896 18.8852C1.9256 18.5871 1.7054 18.2199 1.57695 17.8146C0.842921 15.7199 0.625431 6.97273 2.03911 5.24594C2.50961 4.68421 3.17389 4.33837 3.88777 4.28348C7.68024 3.85886 19.3975 3.91547 20.7432 4.42502C21.1217 4.55288 21.4675 4.76827 21.7547 5.05506C22.0419 5.34185 22.263 5.6926 22.4015 6.08103C23.2035 8.24658 23.2307 16.1162 22.2928 18.1968C22.044 18.7384 21.6275 19.1771 21.1102 19.4423C19.6965 20.1784 5.13833 20.1642 3.26249 19.5273ZM9.28422 15.4226L16.0808 11.7426L9.28422 8.03427V15.4226Z"/>
    </symbol>
    <symbol viewBox="0 0 24 24" id="vk">
        <path d="M12.9825 19C5.46596 19 1.17864 13.7447 1 5H4.76515C4.88882 11.4184 7.66459 14.1371 9.86321 14.6977V5H13.4085V10.5355C15.5796 10.2973 17.8607 7.77477 18.6302 5H22.1755C21.8855 6.43908 21.3075 7.80165 20.4776 9.0025C19.6477 10.2033 18.5837 11.2166 17.3523 11.979C18.7269 12.6756 19.941 13.6615 20.9145 14.8717C21.888 16.082 22.5988 17.489 23 19H19.0974C18.7373 17.6876 18.0054 16.5128 16.9934 15.6228C15.9814 14.7328 14.7343 14.1673 13.4085 13.997V19H12.9825Z"/>
    </symbol>
    <symbol viewBox="0 0 32 32" id="close">
        <rect x="4.70801" y="4.35361" width="32" height="1" transform="rotate(45 4.70801 4.35361)"/>
        <rect x="27.689" y="4.70715" width="32" height="1" transform="rotate(135 27.689 4.70715)"/>
    </symbol>
    <symbol viewBox="0 0 31 21" id="arrow">
        <path d="M31 10.4688L0.499999 10.4688" stroke-width="0.7625"/>
        <path d="M0.501302 10.4861C3.81488 10.4861 10.4872 12.3924 10.668 20.0174"  stroke-width="0.7625"/>
        <path d="M0.501302 10.4861C3.81488 10.4861 10.4872 8.57989 10.668 0.954895" stroke-width="0.7625"/>
    </symbol>
    <symbol viewBox="0 0 16 16" id="dropdown">
        <path d="M7.99805 11L4.53395 6.5L11.4621 6.5L7.99805 11Z"/>
    </symbol>

    <symbol viewBox="0 0 6 10" id="arrow-pager">
        <path d="M0.667704 0.16334C0.885491 -0.0544466 1.23859 -0.0544467 1.45638 0.16334L5.83377 4.54073C6.05156 4.75852 6.05156 5.11162 5.83377 5.3294C5.61598 5.54719 5.26288 5.54719 5.04509 5.3294L0.667704 0.952015C0.449917 0.734228 0.449917 0.381127 0.667704 0.16334Z"/>
        <path d="M0.667704 9.79082C0.885491 10.0086 1.23859 10.0086 1.45638 9.79082L5.83377 5.41343C6.05156 5.19564 6.05156 4.84254 5.83377 4.62475C5.61598 4.40697 5.26288 4.40697 5.04509 4.62475L0.667704 9.00214C0.449917 9.21993 0.449917 9.57303 0.667704 9.79082Z"/>
    </symbol>
    <symbol viewBox="0 0 16 16" id="arrow-filter">
        <path d="M7.99805 11L4.53395 6.5L11.4621 6.5L7.99805 11Z"/>
    </symbol>

    <symbol viewBox="0 0 24 24" id="file">
        <path d="M16.7143 19.2857H4.71429V7.28571H12.4286V5.57143H4.71429C3.77143 5.57143 3 6.34286 3 7.28571V19.2857C3 20.2286 3.77143 21 4.71429 21H16.7143C17.6571 21 18.4286 20.2286 18.4286 19.2857V11.5714H16.7143V19.2857ZM10.0371 16.5686L8.35714 14.5457L6 17.5714H15.4286L12.3943 13.5343L10.0371 16.5686ZM18.4286 5.57143V3H16.7143V5.57143H14.1429C14.1514 5.58 14.1429 7.28571 14.1429 7.28571H16.7143V9.84857C16.7229 9.85714 18.4286 9.84857 18.4286 9.84857V7.28571H21V5.57143H18.4286Z"/>
    </symbol>
    <symbol viewBox="0 0 24 24" id="clip">
        <path d="M17.6701 10.6466L11.7564 17.6942C10.62 19.0486 8.60251 19.2251 7.24814 18.0886C5.89378 16.9522 5.71727 14.9347 6.85372 13.5803L13.2816 5.9199C13.9912 5.07419 15.2535 4.96375 16.0993 5.67339C16.945 6.38303 17.0554 7.64534 16.3458 8.49105L10.9464 14.9258C10.6635 15.2629 10.1564 15.3073 9.81929 15.0244C9.48223 14.7416 9.43786 14.2344 9.72069 13.8974L14.6059 8.07543L13.6866 7.30408L8.80143 13.126C8.0918 13.9717 8.20223 15.234 9.04795 15.9437C9.89366 16.6533 11.156 16.5429 11.8656 15.6972L17.265 9.2624C18.4015 7.90803 18.225 5.89058 16.8706 4.75413C15.5162 3.61769 13.4988 3.79419 12.3623 5.14856L5.93447 12.809C4.37121 14.672 4.61378 17.4446 6.4768 19.0079C8.33982 20.5711 11.1124 20.3286 12.6757 18.4655L18.5893 11.4179L17.6701 10.6466Z"/>
    </symbol>
    <symbol viewBox="0 0 24 24" id="share">
        <path d="M11.9446 7.55652C7.54404 7.78568 4.00513 11.4382 4.00513 15.8945V19L5.11621 16.4134C6.43029 13.7857 9.03751 12.1055 11.9446 11.9511V15.5053L18.9948 9.74219L11.9446 4V7.55652Z"/>
    </symbol>

    <symbol viewBox="0 0 24 24" id="copy">
        <path d="M12.5051 6.63055L11.6221 7.68282C11.505 7.82236 11.4481 8.00269 11.464 8.18416C11.4799 8.36562 11.5672 8.53334 11.7067 8.65043C11.8463 8.76752 12.0266 8.82438 12.2081 8.8085C12.3896 8.79263 12.5573 8.70531 12.6744 8.56577L13.5573 7.51351C13.9086 7.09489 14.4118 6.83295 14.9561 6.78532C15.5005 6.7377 16.0415 6.90828 16.4602 7.25954C16.8788 7.6108 17.1407 8.11397 17.1883 8.65836C17.236 9.20275 17.0654 9.74376 16.7141 10.1624L14.9482 12.2669C14.5969 12.6855 14.0938 12.9475 13.5494 12.9951C13.005 13.0427 12.464 12.8721 12.0454 12.5209C11.984 12.4705 11.9133 12.4328 11.8372 12.4099C11.8277 12.4064 11.8215 12.3967 11.8101 12.3952C11.7553 12.3822 11.6993 12.3748 11.6429 12.3733C11.6102 12.3669 11.5771 12.3624 11.5438 12.36C11.506 12.3682 11.469 12.3798 11.4332 12.3945C11.2894 12.424 11.1603 12.5028 11.0683 12.6171C10.9762 12.7315 10.9269 12.8744 10.9289 13.0212C10.9229 13.0496 10.9189 13.0783 10.9169 13.1071C10.9252 13.1406 10.9356 13.1736 10.9479 13.2058C10.9571 13.2598 10.9733 13.3123 10.9962 13.362C11.0026 13.3712 11.0095 13.3801 11.0171 13.3884C11.0528 13.459 11.1022 13.5218 11.1624 13.5732C11.8606 14.1575 12.762 14.4412 13.669 14.3618C14.5759 14.2825 15.4144 13.8466 16.0005 13.1499L17.7664 11.0453C18.3518 10.3476 18.6361 9.44596 18.5568 8.53864C18.4774 7.63133 18.0408 6.79271 17.3431 6.20727C16.6454 5.62183 15.7437 5.33753 14.8364 5.41691C13.9291 5.49629 13.0905 5.93285 12.5051 6.63055Z"/>
        <path d="M12.2994 15.4238L11.4165 16.4761C11.0652 16.8947 10.562 17.1566 10.0176 17.2043C9.47326 17.2519 8.93225 17.0813 8.51363 16.73C8.09501 16.3788 7.83308 15.8756 7.78545 15.3312C7.73782 14.7868 7.9084 14.2458 8.25966 13.8272L10.0256 11.7227C10.3768 11.304 10.88 11.0421 11.4244 10.9945C11.9688 10.9469 12.5098 11.1174 12.9284 11.4687C13.068 11.5858 13.2483 11.6426 13.4298 11.6268C13.6112 11.6109 13.7789 11.5236 13.896 11.384C14.0131 11.2445 14.07 11.0642 14.0541 10.8827C14.0382 10.7012 13.9509 10.5335 13.8114 10.4164C13.1132 9.83204 12.2118 9.54841 11.3048 9.62777C10.3979 9.70712 9.55937 10.143 8.97331 10.8397L7.2074 12.9442C6.62196 13.6419 6.33766 14.5436 6.41704 15.4509C6.49642 16.3583 6.93297 17.1969 7.63067 17.7823C8.32837 18.3677 9.23006 18.652 10.1374 18.5727C11.0447 18.4933 11.8833 18.0567 12.4687 17.359L13.3517 16.3068C13.4688 16.1672 13.5256 15.9869 13.5098 15.8054C13.4939 15.624 13.4066 15.4562 13.267 15.3392C13.1275 15.2221 12.9472 15.1652 12.7657 15.1811C12.5842 15.197 12.4165 15.2843 12.2994 15.4238Z"/>
    </symbol>
    <symbol viewBox="0 0 32 32" id="doc">
        <path fill-rule="evenodd" clip-rule="evenodd" d="M11.3637 2.5591C10.6432 2.5591 10.0592 3.14317 10.0592 3.86365V11.3182H8.94097V3.86365C8.94097 2.52561 10.0257 1.44092 11.3637 1.44092H22.5455C22.6938 1.44092 22.836 1.49982 22.9409 1.60467L30.3954 9.05922C30.5003 9.16407 30.5592 9.30627 30.5592 9.45455V28.0909C30.5592 29.429 29.4745 30.5136 28.1364 30.5136H11.3637C10.0257 30.5136 8.94097 29.429 8.94097 28.0909V23.4318H10.0592V28.0909C10.0592 28.8114 10.6432 29.3955 11.3637 29.3955H28.1364C28.8569 29.3955 29.441 28.8114 29.441 28.0909V10.0136H22.5455C21.7221 10.0136 21.0546 9.34614 21.0546 8.52274V2.5591H11.3637ZM22.1728 2.5591V8.52274C22.1728 8.72859 22.3397 8.89546 22.5455 8.89546H28.6503L22.3139 2.5591H22.1728Z"/>
        <path d="M18.3327 13.6666C17.8179 13.6666 17.5606 13.9468 17.5606 14.5072V14.8199H18.9973V15.7973H17.5997V20H16.3779V15.7973H15.5179V14.8199H16.3779V14.4876C16.3779 13.9272 16.5408 13.4874 16.8666 13.1682C17.1924 12.8424 17.6518 12.6795 18.2447 12.6795C18.7139 12.6795 19.082 12.7739 19.3492 12.9629L19.0071 13.8816C18.7986 13.7383 18.5738 13.6666 18.3327 13.6666Z"/>
        <path d="M14.6136 12.7479V20H13.4407V19.3256C13.2387 19.5732 12.9879 19.7589 12.6881 19.8827C12.3949 20.0065 12.0691 20.0684 11.7108 20.0684C11.209 20.0684 10.7562 19.9577 10.3522 19.7361C9.95473 19.5146 9.64197 19.2018 9.41392 18.7978C9.18586 18.3873 9.07184 17.9182 9.07184 17.3904C9.07184 16.8626 9.18586 16.3968 9.41392 15.9928C9.64197 15.5888 9.95473 15.276 10.3522 15.0545C10.7562 14.8329 11.209 14.7222 11.7108 14.7222C12.0561 14.7222 12.3721 14.7808 12.6588 14.8981C12.9455 15.0154 13.1898 15.1913 13.3918 15.4259V12.7479H14.6136ZM11.8574 19.0226C12.1506 19.0226 12.4145 18.9575 12.649 18.8272C12.8836 18.6903 13.0693 18.4981 13.2061 18.2505C13.343 18.0029 13.4114 17.7162 13.4114 17.3904C13.4114 17.0646 13.343 16.7779 13.2061 16.5303C13.0693 16.2827 12.8836 16.0938 12.649 15.9634C12.4145 15.8266 12.1506 15.7582 11.8574 15.7582C11.5641 15.7582 11.3003 15.8266 11.0657 15.9634C10.8311 16.0938 10.6454 16.2827 10.5086 16.5303C10.3717 16.7779 10.3033 17.0646 10.3033 17.3904C10.3033 17.7162 10.3717 18.0029 10.5086 18.2505C10.6454 18.4981 10.8311 18.6903 11.0657 18.8272C11.3003 18.9575 11.5641 19.0226 11.8574 19.0226Z"/>
        <path d="M5.69455 14.7222C6.20278 14.7222 6.65563 14.8329 7.0531 15.0545C7.45708 15.276 7.7731 15.5888 8.00115 15.9928C8.22921 16.3968 8.34323 16.8626 8.34323 17.3904C8.34323 17.9182 8.22921 18.3873 8.00115 18.7978C7.7731 19.2018 7.45708 19.5146 7.0531 19.7361C6.65563 19.9577 6.20278 20.0684 5.69455 20.0684C4.99084 20.0684 4.43373 19.8339 4.02323 19.3647V21.8961H2.80151V14.7808H3.96459V15.465C4.16658 15.2174 4.41418 15.0317 4.7074 14.9079C5.00712 14.7841 5.33617 14.7222 5.69455 14.7222ZM5.55771 19.0226C6.00731 19.0226 6.37545 18.8728 6.66215 18.573C6.95536 18.2733 7.10197 17.8791 7.10197 17.3904C7.10197 16.9017 6.95536 16.5075 6.66215 16.2078C6.37545 15.9081 6.00731 15.7582 5.55771 15.7582C5.2645 15.7582 5.00061 15.8266 4.76604 15.9634C4.53147 16.0938 4.34577 16.2827 4.20893 16.5303C4.0721 16.7779 4.00369 17.0646 4.00369 17.3904C4.00369 17.7162 4.0721 18.0029 4.20893 18.2505C4.34577 18.4981 4.53147 18.6903 4.76604 18.8272C5.00061 18.9575 5.2645 19.0226 5.55771 19.0226Z"/>
    </symbol>
    <symbol viewBox="0 0 24 24" id="loupe">
        <circle cx="11.2602" cy="11.2592" r="5.91304" transform="rotate(-45 11.2602 11.2592)" stroke-width="1.3913"/>
        <path d="M19.1308 19.6214C19.4025 19.8931 19.8429 19.8931 20.1146 19.6214C20.3863 19.3498 20.3863 18.9093 20.1146 18.6376L19.1308 19.6214ZM15.1956 15.6862L19.1308 19.6214L20.1146 18.6376L16.1794 14.7024L15.1956 15.6862Z"/>
    </symbol>
    <svg viewBox="0 0 20 20" id="download">
        <path d="M17.5 15V12.5C17.5 12.3342 17.4342 12.1753 17.3169 12.0581C17.1997 11.9408 17.0408 11.875 16.875 11.875C16.7092 11.875 16.5503 11.9408 16.4331 12.0581C16.3158 12.1753 16.25 12.3342 16.25 12.5V15C16.25 15.1658 16.1842 15.3247 16.0669 15.4419C15.9497 15.5592 15.7908 15.625 15.625 15.625H4.375C4.20924 15.625 4.05027 15.5592 3.93306 15.4419C3.81585 15.3247 3.75 15.1658 3.75 15V12.5C3.75 12.3342 3.68415 12.1753 3.56694 12.0581C3.44973 11.9408 3.29076 11.875 3.125 11.875C2.95924 11.875 2.80027 11.9408 2.68306 12.0581C2.56585 12.1753 2.5 12.3342 2.5 12.5V15C2.5 15.4973 2.69754 15.9742 3.04917 16.3258C3.40081 16.6775 3.87772 16.875 4.375 16.875H15.625C16.1223 16.875 16.5992 16.6775 16.9508 16.3258C17.3025 15.9742 17.5 15.4973 17.5 15ZM13.5125 11.7375L10.3875 14.2375C10.2772 14.3247 10.1406 14.3721 10 14.3721C9.85937 14.3721 9.72284 14.3247 9.6125 14.2375L6.4875 11.7375C6.37364 11.63 6.30426 11.4837 6.2931 11.3275C6.28195 11.1714 6.32982 11.0167 6.42725 10.8941C6.52468 10.7715 6.66457 10.69 6.81924 10.6656C6.97392 10.6412 7.1321 10.6758 7.2625 10.7625L9.375 12.45V3.75C9.375 3.58424 9.44085 3.42527 9.55806 3.30806C9.67527 3.19085 9.83424 3.125 10 3.125C10.1658 3.125 10.3247 3.19085 10.4419 3.30806C10.5592 3.42527 10.625 3.58424 10.625 3.75V12.45L12.7375 10.7625C12.8004 10.7031 12.875 10.6574 12.9565 10.6283C13.0381 10.5993 13.1247 10.5874 13.211 10.5936C13.2974 10.5998 13.3815 10.6238 13.458 10.6642C13.5346 10.7045 13.6019 10.7603 13.6558 10.8281C13.7096 10.8958 13.7488 10.974 13.7709 11.0577C13.7929 11.1414 13.7974 11.2288 13.7839 11.3143C13.7704 11.3998 13.7394 11.4815 13.6926 11.5544C13.6459 11.6272 13.5846 11.6896 13.5125 11.7375Z"/>
    </svg>

</svg>